<?xml version="1.0" encoding="utf-8"?>
<!-- Generator: Adobe Illustrator 22.1.0, SVG Export Plug-In . SVG Version: 6.00 Build 0)  -->
<svg version="1.1" id="Layer_1" xmlns="http://www.w3.org/2000/svg" xmlns:xlink="http://www.w3.org/1999/xlink" x="0px" y="0px"
	 viewBox="0 0 799.1 98.6" style="enable-background:new 0 0 799.1 98.6;" xml:space="preserve">
<style type="text/css">
	.st0{fill:#D1D3D4;}
	.st1{fill:#F37021;}
	.st2{enable-background:new    ;}
	.st3{fill:none;stroke:#939598;stroke-width:0.25;stroke-miterlimit:10;}
	.st4{fill:#58595B;}
	.st5{fill:#D1D3D4;stroke:#58595B;stroke-miterlimit:10;}
	.st6{fill:none;stroke:#58595B;stroke-width:0.5;stroke-miterlimit:10;}
</style>
<title>Layer 1-2</title>
<g id="Layer_2_1_">
	<g id="Layer_1-2">
		<g id="Layer_1-2-2">
			<rect x="27" y="17.3" class="st0" width="486.6" height="19.7"/>
			<rect x="495.9" y="59.4" class="st1" width="276.3" height="21.5"/>
			<g class="st2">
				<path class="st1" d="M105.1,35.4V18.3c0-0.1,0.5-0.5,1.4-1.2h16.1l13.9,20.8h0.6l13.8-20.8h15.9c1,0.7,1.5,1.1,1.5,1.2v32.2
					c-0.1,0.9-0.2,1.5-0.4,1.9c-0.2,0.4-0.4,0.8-0.7,1c-0.3,0.2-0.6,0.4-0.9,0.5c-0.3,0.1-0.7,0.2-1,0.4h-14.8L136.8,74l-13.7-19.8
					h-14.9c-0.4-0.2-0.8-0.3-1.1-0.4c-0.3-0.1-0.6-0.3-0.9-0.5c-0.3-0.2-0.5-0.6-0.7-1c-0.2-0.5-0.3-1.1-0.4-1.9V35.4z M123.7,80
					c-0.1,0.1-0.4,0.2-0.8,0.5h-15.5c-0.4,0-0.9-0.2-1.4-0.6c-0.6-0.4-0.8-0.8-0.8-1.3V60.4c0-0.1,0-0.3,0.2-0.5
					c0.1-0.2,0.2-0.5,0.4-0.7c0.2-0.3,0.4-0.5,0.6-0.6s0.4-0.3,0.6-0.3h15.4c0,0,0.2,0,0.4,0.1c0.2,0.1,0.3,0.1,0.4,0.1
					c0.2,0.2,0.5,0.5,0.9,0.8c0.4,0.4,0.6,0.6,0.6,0.6v18.8c0,0.2-0.2,0.4-0.5,0.7C123.8,79.7,123.7,79.9,123.7,80z M149.7,80
					c0-0.1-0.2-0.3-0.5-0.5c-0.3-0.3-0.5-0.5-0.5-0.7V60c0,0,0.2-0.3,0.6-0.6c0.4-0.4,0.7-0.6,0.9-0.8c0,0,0.2,0,0.4-0.1
					c0.2-0.1,0.3-0.1,0.4-0.1h15.5c0.2,0,0.3,0.1,0.5,0.3c0.2,0.2,0.4,0.4,0.6,0.6c0.2,0.3,0.3,0.5,0.5,0.7c0.1,0.2,0.2,0.4,0.2,0.5
					v18.2c0,0.5-0.3,0.9-0.8,1.3c-0.6,0.4-1,0.6-1.4,0.6h-15.5C150,80.2,149.8,80,149.7,80z"/>
				<path class="st1" d="M175,32.3c0.7-2.2,1.8-4.2,3.1-6.1c1.3-1.8,2.9-3.4,4.7-4.8c1.8-1.4,3.9-2.4,6.1-3.1
					c0.9-0.4,1.6-0.6,2.2-0.7c0.6-0.1,1.5-0.3,2.7-0.6h7.3c0.5,0.3,0.9,0.5,1.2,0.9c0.3,0.3,0.5,0.6,0.5,0.8v17.5
					c-1.1,0.5-2,0.8-2.8,0.9c-0.3,0.1-0.6,0.4-0.8,0.9c-0.3,0.5-0.5,1-0.6,1.5c-0.1,0.3-0.1,0.5-0.2,0.7c-0.1,0.2-0.1,0.5-0.2,0.7
					c-0.1,0.3-0.1,0.7-0.2,1.4c-0.1,0.7-0.1,1.7-0.2,2.9c-0.1,0.2-0.1,0.5-0.1,0.9v0.9v3.8v0.9c0,0.4,0,0.7,0.1,1
					c0.2,2.6,0.4,4.1,0.6,4.5c0.1,0.2,0.2,0.4,0.4,0.6c0.2,0.2,0.3,0.5,0.5,0.9c0.4,0.6,0.8,1.1,1.2,1.4c0.4,0.4,0.8,0.6,1.1,0.8
					c0.3,0.2,0.6,0.3,0.8,0.4c0.2,0.1,0.3,0.2,0.3,0.3v17.6c0,0.1-0.1,0.2-0.3,0.3c-0.2,0.1-0.4,0.3-0.6,0.4
					c-0.2,0.1-0.5,0.3-0.9,0.4h-8.1c-0.3,0-1.6-0.3-4-1c-2.3-0.6-4.3-1.6-6.2-2.9c-1.9-1.3-3.5-2.9-4.8-4.7
					c-1.3-1.8-2.3-3.9-3.1-6.1c-0.7-2.2-1.1-4.5-1.1-6.9c0-3.2,0-5.9,0-8.1c0-2.2,0-4.2,0-6s0-3.1,0-3.7c0-0.7,0-1.1,0-1.2v-0.7
					C173.9,36.8,174.3,34.5,175,32.3z M236.1,58.8c0,2.4-0.4,4.7-1.1,6.9c-0.7,2.2-1.8,4.3-3.1,6.1c-1.3,1.8-2.9,3.4-4.8,4.7
					c-1.9,1.3-3.9,2.3-6.2,2.9c-1.3,0.4-2.3,0.6-2.9,0.8c-0.6,0.2-1,0.2-1.2,0.2h-8.1c-0.2,0-0.5-0.1-1-0.4
					c-0.5-0.3-0.8-0.5-0.8-0.7V61.8c0-0.2,0.1-0.3,0.2-0.4c0.1,0,0.3-0.1,0.5-0.2c0.2,0,0.4-0.1,0.7-0.3c0.3-0.1,0.6-0.3,0.9-0.6
					c0.4-0.4,0.8-0.9,1.2-1.5c0.4-0.6,0.7-1.1,0.9-1.5c0.3-0.4,0.4-1.9,0.5-4.5c0-0.3,0.1-0.6,0.1-1v-0.9v-3.8v-0.9
					c0-0.4,0-0.7-0.1-0.9c-0.1-1.2-0.1-2.1-0.2-2.8c-0.1-0.7-0.1-1.2-0.2-1.5c-0.1-0.5-0.2-1-0.4-1.7c-0.2-0.7-0.4-1.2-0.6-1.6
					c-0.1-0.3-0.2-0.4-0.5-0.5c-0.3-0.1-0.6-0.2-0.9-0.2c-0.3,0-0.7-0.1-1-0.1c-0.4,0-0.6-0.1-0.8-0.2c-0.2-0.2-0.2-0.3-0.2-0.5
					V18.7c0-0.2,0.2-0.5,0.5-0.8c0.3-0.3,0.7-0.6,1.2-0.9h7.3c1.2,0.3,2,0.4,2.7,0.6c0.6,0.1,1.4,0.4,2.2,0.7c2.2,0.7,4.2,1.7,6,3.1
					c1.9,1.4,3.5,3,4.8,4.8c1.3,1.8,2.4,3.8,3.1,6c0.8,2.2,1.1,4.5,1.1,6.9V58.8z"/>
				<path class="st1" d="M243.6,80.5c-0.7,0-1.2-0.3-1.6-0.8c-0.4-0.5-0.6-1.1-0.6-1.9V19.9c0.4-0.9,0.8-1.5,1.4-2
					c0.6-0.5,1.1-0.8,1.7-0.9h20.6c0.7,0.1,1.3,0.2,1.7,0.3s0.9,0.5,1.4,1V78c-0.4,0.7-0.8,1.2-1.2,1.5c-0.4,0.4-1,0.7-1.7,0.9
					H243.6z M303.7,77.6c-0.1,0.6-0.4,1.2-0.9,1.8c-0.6,0.6-1.1,1-1.6,1h-19.6c-0.8,0-1.3-0.2-1.7-0.7s-0.6-1-0.6-1.6V41.1
					c-0.5-0.6-1-1.3-1.4-2.1c-0.4-0.8-1-1.4-1.7-1.7c-0.7-0.5-1.7-0.8-3-0.8c-0.7,0-1.1-0.1-1.3-0.3c-0.2-0.1-0.3-0.2-0.3-0.3V18.4
					c0-0.2,0.3-0.4,0.9-0.7c0.6-0.3,1.1-0.5,1.4-0.6h8.3c1,0.2,1.8,0.4,2.4,0.5c0.6,0.1,1.4,0.3,2.4,0.5c2.5,0.6,4.7,1.6,6.7,2.9
					s3.8,3,5.3,4.8c1.5,1.9,2.6,3.9,3.5,6.1c0.8,2.2,1.2,4.5,1.2,6.8L303.7,77.6z"/>
				<path class="st1" d="M335.7,19.9v58.6c0,0.5-0.3,0.9-0.8,1.3s-1,0.6-1.5,0.6h-22.6c-0.3,0-0.6-0.1-1.1-0.4
					c-0.5-0.3-0.8-0.6-0.8-1V19.8c0.2-0.8,0.5-1.4,1.1-1.9c0.6-0.5,1.1-0.7,1.6-0.8h21.6c0.7,0.2,1.2,0.5,1.5,0.9
					c0.3,0.4,0.5,0.9,0.6,1.5L335.7,19.9z"/>
				<path class="st1" d="M342.7,80.5c-0.7,0-1.2-0.3-1.6-0.8c-0.4-0.5-0.6-1.1-0.6-1.9V19.9c0.4-0.9,0.8-1.5,1.4-2
					c0.6-0.5,1.1-0.8,1.7-0.9h20.6c0.7,0.1,1.3,0.2,1.7,0.3s0.9,0.5,1.4,1V78c-0.4,0.7-0.8,1.2-1.2,1.5c-0.4,0.4-1,0.7-1.7,0.9
					H342.7z M402.8,77.6c-0.1,0.6-0.4,1.2-0.9,1.8c-0.6,0.6-1.1,1-1.6,1h-19.6c-0.8,0-1.3-0.2-1.7-0.7s-0.6-1-0.6-1.6V41.1
					c-0.5-0.6-1-1.3-1.4-2.1c-0.4-0.8-1-1.4-1.7-1.7c-0.7-0.5-1.7-0.8-3-0.8c-0.7,0-1.1-0.1-1.3-0.3c-0.2-0.1-0.3-0.2-0.3-0.3V18.4
					c0-0.2,0.3-0.4,0.9-0.7c0.6-0.3,1.1-0.5,1.4-0.6h8.3c1,0.2,1.8,0.4,2.4,0.5c0.6,0.1,1.4,0.3,2.4,0.5c2.5,0.6,4.7,1.6,6.7,2.9
					c2,1.4,3.8,3,5.3,4.8c1.5,1.9,2.6,3.9,3.5,6.1c0.8,2.2,1.2,4.5,1.2,6.8L402.8,77.6z"/>
				<path class="st1" d="M409.2,32.3c0.7-2.2,1.8-4.2,3.1-6.1c1.3-1.8,2.9-3.4,4.7-4.8c1.8-1.4,3.9-2.4,6.1-3.1
					c0.9-0.4,1.6-0.6,2.2-0.7c0.6-0.1,1.5-0.3,2.7-0.6h7.3c0.5,0.3,0.9,0.5,1.2,0.9c0.3,0.3,0.5,0.6,0.5,0.8v17.5
					c-1.1,0.5-2,0.8-2.8,0.9c-0.3,0.1-0.6,0.4-0.8,0.9c-0.3,0.5-0.5,1-0.6,1.5c-0.1,0.3-0.1,0.5-0.2,0.7c-0.1,0.2-0.1,0.5-0.2,0.7
					c-0.1,0.3-0.1,0.7-0.2,1.4c-0.1,0.7-0.1,1.7-0.2,2.9c-0.1,0.2-0.1,0.5-0.1,0.9v0.9v3.8v0.9c0,0.4,0,0.7,0.1,1
					c0.2,2.6,0.4,4.1,0.6,4.5c0.1,0.2,0.2,0.4,0.4,0.6c0.2,0.2,0.3,0.5,0.5,0.9c0.4,0.6,0.8,1.1,1.2,1.4c0.4,0.4,0.8,0.6,1.1,0.8
					c0.3,0.2,0.6,0.3,0.8,0.4c0.2,0.1,0.3,0.2,0.3,0.3v17.6c0,0.1-0.1,0.2-0.3,0.3c-0.2,0.1-0.4,0.3-0.6,0.4
					c-0.2,0.1-0.5,0.3-0.9,0.4h-8.1c-0.3,0-1.6-0.3-4-1c-2.3-0.6-4.3-1.6-6.2-2.9c-1.9-1.3-3.5-2.9-4.8-4.7
					c-1.3-1.8-2.3-3.9-3.1-6.1c-0.7-2.2-1.1-4.5-1.1-6.9c0-3.2,0-5.9,0-8.1c0-2.2,0-4.2,0-6s0-3.1,0-3.7c0-0.7,0-1.1,0-1.2v-0.7
					C408.1,36.8,408.4,34.5,409.2,32.3z M470.2,58.8c0,2.4-0.4,4.7-1.1,6.9c-0.7,2.2-1.8,4.3-3.1,6.1c-1.3,1.8-2.9,3.4-4.8,4.7
					c-1.9,1.3-3.9,2.3-6.2,2.9c-1.3,0.4-2.3,0.6-2.9,0.8c-0.6,0.2-1,0.2-1.2,0.2H443c-0.2,0-0.5-0.1-1-0.4s-0.8-0.5-0.8-0.7V61.8
					c0-0.2,0.1-0.3,0.2-0.4c0.1,0,0.3-0.1,0.5-0.2c0.2,0,0.4-0.1,0.7-0.3c0.3-0.1,0.6-0.3,0.9-0.6c0.4-0.4,0.8-0.9,1.2-1.5
					c0.4-0.6,0.7-1.1,0.9-1.5c0.3-0.4,0.4-1.9,0.5-4.5c0-0.3,0.1-0.6,0.1-1v-0.9v-3.8v-0.9c0-0.4,0-0.7-0.1-0.9
					c-0.1-1.2-0.1-2.1-0.2-2.8c-0.1-0.7-0.1-1.2-0.2-1.5c-0.1-0.5-0.2-1-0.4-1.7c-0.2-0.7-0.4-1.2-0.6-1.6c0-0.3-0.2-0.4-0.5-0.5
					c-0.3-0.1-0.6-0.2-0.9-0.2c-0.3,0-0.7-0.1-1-0.1c-0.4,0-0.6-0.1-0.8-0.2c-0.2-0.2-0.2-0.3-0.2-0.5V18.7c0-0.2,0.2-0.5,0.5-0.8
					c0.3-0.3,0.7-0.6,1.2-0.9h7.3c1.2,0.3,2,0.4,2.7,0.6c0.6,0.1,1.4,0.4,2.2,0.7c2.2,0.7,4.2,1.7,6,3.1s3.5,3,4.8,4.8
					c1.3,1.8,2.4,3.8,3.1,6s1.1,4.5,1.1,6.9V58.8z"/>
			</g>
			<g class="st2">
				<path class="st3" d="M105.1,35.4V18.3c0-0.1,0.5-0.5,1.4-1.2h16.1l13.9,20.8h0.6l13.8-20.8h15.9c1,0.7,1.5,1.1,1.5,1.2v32.2
					c-0.1,0.9-0.2,1.5-0.4,1.9c-0.2,0.4-0.4,0.8-0.7,1c-0.3,0.2-0.6,0.4-0.9,0.5c-0.3,0.1-0.7,0.2-1,0.4h-14.8L136.8,74l-13.7-19.8
					h-14.9c-0.4-0.2-0.8-0.3-1.1-0.4c-0.3-0.1-0.6-0.3-0.9-0.5c-0.3-0.2-0.5-0.6-0.7-1c-0.2-0.5-0.3-1.1-0.4-1.9V35.4z M123.7,80
					c-0.1,0.1-0.4,0.2-0.8,0.5h-15.5c-0.4,0-0.9-0.2-1.4-0.6c-0.6-0.4-0.8-0.8-0.8-1.3V60.4c0-0.1,0-0.3,0.2-0.5
					c0.1-0.2,0.2-0.5,0.4-0.7c0.2-0.3,0.4-0.5,0.6-0.6s0.4-0.3,0.6-0.3h15.4c0,0,0.2,0,0.4,0.1c0.2,0.1,0.3,0.1,0.4,0.1
					c0.2,0.2,0.5,0.5,0.9,0.8c0.4,0.4,0.6,0.6,0.6,0.6v18.8c0,0.2-0.2,0.4-0.5,0.7C123.8,79.7,123.7,79.9,123.7,80z M149.7,80
					c0-0.1-0.2-0.3-0.5-0.5c-0.3-0.3-0.5-0.5-0.5-0.7V60c0,0,0.2-0.3,0.6-0.6c0.4-0.4,0.7-0.6,0.9-0.8c0,0,0.2,0,0.4-0.1
					c0.2-0.1,0.3-0.1,0.4-0.1h15.5c0.2,0,0.3,0.1,0.5,0.3c0.2,0.2,0.4,0.4,0.6,0.6c0.2,0.3,0.3,0.5,0.5,0.7c0.1,0.2,0.2,0.4,0.2,0.5
					v18.2c0,0.5-0.3,0.9-0.8,1.3c-0.6,0.4-1,0.6-1.4,0.6h-15.5C150,80.2,149.8,80,149.7,80z"/>
				<path class="st3" d="M175,32.3c0.7-2.2,1.8-4.2,3.1-6.1c1.3-1.8,2.9-3.4,4.7-4.8c1.8-1.4,3.9-2.4,6.1-3.1
					c0.9-0.4,1.6-0.6,2.2-0.7c0.6-0.1,1.5-0.3,2.7-0.6h7.3c0.5,0.3,0.9,0.5,1.2,0.9c0.3,0.3,0.5,0.6,0.5,0.8v17.5
					c-1.1,0.5-2,0.8-2.8,0.9c-0.3,0.1-0.6,0.4-0.8,0.9c-0.3,0.5-0.5,1-0.6,1.5c-0.1,0.3-0.1,0.5-0.2,0.7c-0.1,0.2-0.1,0.5-0.2,0.7
					c-0.1,0.3-0.1,0.7-0.2,1.4c-0.1,0.7-0.1,1.7-0.2,2.9c-0.1,0.2-0.1,0.5-0.1,0.9v0.9v3.8v0.9c0,0.4,0,0.7,0.1,1
					c0.2,2.6,0.4,4.1,0.6,4.5c0.1,0.2,0.2,0.4,0.4,0.6c0.2,0.2,0.3,0.5,0.5,0.9c0.4,0.6,0.8,1.1,1.2,1.4c0.4,0.4,0.8,0.6,1.1,0.8
					c0.3,0.2,0.6,0.3,0.8,0.4c0.2,0.1,0.3,0.2,0.3,0.3v17.6c0,0.1-0.1,0.2-0.3,0.3c-0.2,0.1-0.4,0.3-0.6,0.4
					c-0.2,0.1-0.5,0.3-0.9,0.4h-8.1c-0.3,0-1.6-0.3-4-1c-2.3-0.6-4.3-1.6-6.2-2.9c-1.9-1.3-3.5-2.9-4.8-4.7
					c-1.3-1.8-2.3-3.9-3.1-6.1c-0.7-2.2-1.1-4.5-1.1-6.9c0-3.2,0-5.9,0-8.1c0-2.2,0-4.2,0-6s0-3.1,0-3.7c0-0.7,0-1.1,0-1.2v-0.7
					C173.9,36.8,174.3,34.5,175,32.3z M236.1,58.8c0,2.4-0.4,4.7-1.1,6.9c-0.7,2.2-1.8,4.3-3.1,6.1c-1.3,1.8-2.9,3.4-4.8,4.7
					c-1.9,1.3-3.9,2.3-6.2,2.9c-1.3,0.4-2.3,0.6-2.9,0.8c-0.6,0.2-1,0.2-1.2,0.2h-8.1c-0.2,0-0.5-0.1-1-0.4
					c-0.5-0.3-0.8-0.5-0.8-0.7V61.8c0-0.2,0.1-0.3,0.2-0.4c0.1,0,0.3-0.1,0.5-0.2c0.2,0,0.4-0.1,0.7-0.3c0.3-0.1,0.6-0.3,0.9-0.6
					c0.4-0.4,0.8-0.9,1.2-1.5c0.4-0.6,0.7-1.1,0.9-1.5c0.3-0.4,0.4-1.9,0.5-4.5c0-0.3,0.1-0.6,0.1-1v-0.9v-3.8v-0.9
					c0-0.4,0-0.7-0.1-0.9c-0.1-1.2-0.1-2.1-0.2-2.8c-0.1-0.7-0.1-1.2-0.2-1.5c-0.1-0.5-0.2-1-0.4-1.7c-0.2-0.7-0.4-1.2-0.6-1.6
					c-0.1-0.3-0.2-0.4-0.5-0.5c-0.3-0.1-0.6-0.2-0.9-0.2c-0.3,0-0.7-0.1-1-0.1c-0.4,0-0.6-0.1-0.8-0.2c-0.2-0.2-0.2-0.3-0.2-0.5
					V18.7c0-0.2,0.2-0.5,0.5-0.8c0.3-0.3,0.7-0.6,1.2-0.9h7.3c1.2,0.3,2,0.4,2.7,0.6c0.6,0.1,1.4,0.4,2.2,0.7c2.2,0.7,4.2,1.7,6,3.1
					c1.9,1.4,3.5,3,4.8,4.8c1.3,1.8,2.4,3.8,3.1,6c0.8,2.2,1.1,4.5,1.1,6.9V58.8z"/>
				<path class="st3" d="M243.6,80.5c-0.7,0-1.2-0.3-1.6-0.8c-0.4-0.5-0.6-1.1-0.6-1.9V19.9c0.4-0.9,0.8-1.5,1.4-2
					c0.6-0.5,1.1-0.8,1.7-0.9h20.6c0.7,0.1,1.3,0.2,1.7,0.3s0.9,0.5,1.4,1V78c-0.4,0.7-0.8,1.2-1.2,1.5c-0.4,0.4-1,0.7-1.7,0.9
					H243.6z M303.7,77.6c-0.1,0.6-0.4,1.2-0.9,1.8c-0.6,0.6-1.1,1-1.6,1h-19.6c-0.8,0-1.3-0.2-1.7-0.7s-0.6-1-0.6-1.6V41.1
					c-0.5-0.6-1-1.3-1.4-2.1c-0.4-0.8-1-1.4-1.7-1.7c-0.7-0.5-1.7-0.8-3-0.8c-0.7,0-1.1-0.1-1.3-0.3c-0.2-0.1-0.3-0.2-0.3-0.3V18.4
					c0-0.2,0.3-0.4,0.9-0.7c0.6-0.3,1.1-0.5,1.4-0.6h8.3c1,0.2,1.8,0.4,2.4,0.5c0.6,0.1,1.4,0.3,2.4,0.5c2.5,0.6,4.7,1.6,6.7,2.9
					s3.8,3,5.3,4.8c1.5,1.9,2.6,3.9,3.5,6.1c0.8,2.2,1.2,4.5,1.2,6.8L303.7,77.6z"/>
				<path class="st3" d="M335.7,19.9v58.6c0,0.5-0.3,0.9-0.8,1.3s-1,0.6-1.5,0.6h-22.6c-0.3,0-0.6-0.1-1.1-0.4
					c-0.5-0.3-0.8-0.6-0.8-1V19.8c0.2-0.8,0.5-1.4,1.1-1.9c0.6-0.5,1.1-0.7,1.6-0.8h21.6c0.7,0.2,1.2,0.5,1.5,0.9
					c0.3,0.4,0.5,0.9,0.6,1.5L335.7,19.9z"/>
				<path class="st3" d="M342.7,80.5c-0.7,0-1.2-0.3-1.6-0.8c-0.4-0.5-0.6-1.1-0.6-1.9V19.9c0.4-0.9,0.8-1.5,1.4-2
					c0.6-0.5,1.1-0.8,1.7-0.9h20.6c0.7,0.1,1.3,0.2,1.7,0.3s0.9,0.5,1.4,1V78c-0.4,0.7-0.8,1.2-1.2,1.5c-0.4,0.4-1,0.7-1.7,0.9
					H342.7z M402.8,77.6c-0.1,0.6-0.4,1.2-0.9,1.8c-0.6,0.6-1.1,1-1.6,1h-19.6c-0.8,0-1.3-0.2-1.7-0.7s-0.6-1-0.6-1.6V41.1
					c-0.5-0.6-1-1.3-1.4-2.1c-0.4-0.8-1-1.4-1.7-1.7c-0.7-0.5-1.7-0.8-3-0.8c-0.7,0-1.1-0.1-1.3-0.3c-0.2-0.1-0.3-0.2-0.3-0.3V18.4
					c0-0.2,0.3-0.4,0.9-0.7c0.6-0.3,1.1-0.5,1.4-0.6h8.3c1,0.2,1.8,0.4,2.4,0.5c0.6,0.1,1.4,0.3,2.4,0.5c2.5,0.6,4.7,1.6,6.7,2.9
					c2,1.4,3.8,3,5.3,4.8c1.5,1.9,2.6,3.9,3.5,6.1c0.8,2.2,1.2,4.5,1.2,6.8L402.8,77.6z"/>
				<path class="st3" d="M409.2,32.3c0.7-2.2,1.8-4.2,3.1-6.1c1.3-1.8,2.9-3.4,4.7-4.8c1.8-1.4,3.9-2.4,6.1-3.1
					c0.9-0.4,1.6-0.6,2.2-0.7c0.6-0.1,1.5-0.3,2.7-0.6h7.3c0.5,0.3,0.9,0.5,1.2,0.9c0.3,0.3,0.5,0.6,0.5,0.8v17.5
					c-1.1,0.5-2,0.8-2.8,0.9c-0.3,0.1-0.6,0.4-0.8,0.9c-0.3,0.5-0.5,1-0.6,1.5c-0.1,0.3-0.1,0.5-0.2,0.7c-0.1,0.2-0.1,0.5-0.2,0.7
					c-0.1,0.3-0.1,0.7-0.2,1.4c-0.1,0.7-0.1,1.7-0.2,2.9c-0.1,0.2-0.1,0.5-0.1,0.9v0.9v3.8v0.9c0,0.4,0,0.7,0.1,1
					c0.2,2.6,0.4,4.1,0.6,4.5c0.1,0.2,0.2,0.4,0.4,0.6c0.2,0.2,0.3,0.5,0.5,0.9c0.4,0.6,0.8,1.1,1.2,1.4c0.4,0.4,0.8,0.6,1.1,0.8
					c0.3,0.2,0.6,0.3,0.8,0.4c0.2,0.1,0.3,0.2,0.3,0.3v17.6c0,0.1-0.1,0.2-0.3,0.3c-0.2,0.1-0.4,0.3-0.6,0.4
					c-0.2,0.1-0.5,0.3-0.9,0.4h-8.1c-0.3,0-1.6-0.3-4-1c-2.3-0.6-4.3-1.6-6.2-2.9c-1.9-1.3-3.5-2.9-4.8-4.7
					c-1.3-1.8-2.3-3.9-3.1-6.1c-0.7-2.2-1.1-4.5-1.1-6.9c0-3.2,0-5.9,0-8.1c0-2.2,0-4.2,0-6s0-3.1,0-3.7c0-0.7,0-1.1,0-1.2v-0.7
					C408.1,36.8,408.4,34.5,409.2,32.3z M470.2,58.8c0,2.4-0.4,4.7-1.1,6.9c-0.7,2.2-1.8,4.3-3.1,6.1c-1.3,1.8-2.9,3.4-4.8,4.7
					c-1.9,1.3-3.9,2.3-6.2,2.9c-1.3,0.4-2.3,0.6-2.9,0.8c-0.6,0.2-1,0.2-1.2,0.2H443c-0.2,0-0.5-0.1-1-0.4s-0.8-0.5-0.8-0.7V61.8
					c0-0.2,0.1-0.3,0.2-0.4c0.1,0,0.3-0.1,0.5-0.2c0.2,0,0.4-0.1,0.7-0.3c0.3-0.1,0.6-0.3,0.9-0.6c0.4-0.4,0.8-0.9,1.2-1.5
					c0.4-0.6,0.7-1.1,0.9-1.5c0.3-0.4,0.4-1.9,0.5-4.5c0-0.3,0.1-0.6,0.1-1v-0.9v-3.8v-0.9c0-0.4,0-0.7-0.1-0.9
					c-0.1-1.2-0.1-2.1-0.2-2.8c-0.1-0.7-0.1-1.2-0.2-1.5c-0.1-0.5-0.2-1-0.4-1.7c-0.2-0.7-0.4-1.2-0.6-1.6c0-0.3-0.2-0.4-0.5-0.5
					c-0.3-0.1-0.6-0.2-0.9-0.2c-0.3,0-0.7-0.1-1-0.1c-0.4,0-0.6-0.1-0.8-0.2c-0.2-0.2-0.2-0.3-0.2-0.5V18.7c0-0.2,0.2-0.5,0.5-0.8
					c0.3-0.3,0.7-0.6,1.2-0.9h7.3c1.2,0.3,2,0.4,2.7,0.6c0.6,0.1,1.4,0.4,2.2,0.7c2.2,0.7,4.2,1.7,6,3.1s3.5,3,4.8,4.8
					c1.3,1.8,2.4,3.8,3.1,6s1.1,4.5,1.1,6.9V58.8z"/>
			</g>
			<g class="st2">
				<path class="st4" d="M479.2,35.9V20.2c0-0.4,0.1-0.8,0.4-1.2c0.3-0.4,0.6-0.9,1-1.4h37.5c0.6,0.8,0.9,1.2,1.1,1.4
					c0.2,0.2,0.3,0.3,0.3,0.5V79c0,0.6-0.3,1.1-1,1.4c-0.7,0.3-1.2,0.5-1.6,0.5h-20.5c-0.5,0-1-0.2-1.4-0.7
					c-0.4-0.5-0.6-0.9-0.6-1.4V39.7c0-0.2-0.1-0.4-0.2-0.8c-0.1-0.4-0.5-0.8-1-1.2h-12.9c-0.3,0-0.5-0.2-0.8-0.6
					C479.3,36.8,479.2,36.4,479.2,35.9z M523.3,37.7c-0.5,0-0.8-0.3-0.8-0.7V19.1c0-0.2,0.5-0.7,1.6-1.6l10.9-0.1
					c0.4,0,0.8,0.2,1.3,0.6c0.5,0.4,0.7,0.9,0.7,1.4v16.6c-0.3,0.8-0.7,1.2-1.3,1.5c-0.6,0.2-1.1,0.3-1.4,0.3h-10.3
					C523.5,37.8,523.3,37.7,523.3,37.7z"/>
				<path class="st4" d="M544.2,32.8c0.7-2.2,1.8-4.2,3.1-6.1c1.3-1.8,2.9-3.4,4.7-4.8c1.8-1.4,3.9-2.4,6.1-3.1
					c0.9-0.4,1.6-0.6,2.2-0.7c0.6-0.1,1.5-0.3,2.7-0.6h7.3c0.5,0.3,0.9,0.5,1.2,0.9c0.3,0.3,0.5,0.6,0.5,0.8v17.5
					c-1.1,0.5-2,0.8-2.8,0.9c-0.3,0.1-0.6,0.4-0.8,0.9c-0.3,0.5-0.5,1-0.6,1.5c-0.1,0.3-0.1,0.5-0.2,0.7c0,0.2-0.1,0.5-0.2,0.7
					c-0.1,0.3-0.1,0.7-0.2,1.4c-0.1,0.7-0.1,1.7-0.2,2.9c-0.1,0.2-0.1,0.5-0.1,0.9v0.9v3.8v0.9c0,0.4,0,0.7,0.1,1
					c0.2,2.6,0.4,4.1,0.6,4.5c0.1,0.2,0.2,0.4,0.4,0.6c0.2,0.2,0.3,0.5,0.5,0.9c0.4,0.6,0.8,1.1,1.2,1.4c0.4,0.4,0.8,0.6,1.1,0.8
					c0.3,0.2,0.6,0.3,0.8,0.4c0.2,0.1,0.3,0.2,0.3,0.3v17.6c0,0.1-0.1,0.2-0.3,0.3c-0.2,0.1-0.4,0.3-0.6,0.4
					c-0.2,0.1-0.5,0.3-0.9,0.4h-8.1c-0.3,0-1.6-0.3-4-1c-2.3-0.6-4.3-1.6-6.2-2.9c-1.9-1.3-3.5-2.9-4.8-4.7
					c-1.3-1.8-2.3-3.9-3.1-6.1c-0.7-2.2-1.1-4.5-1.1-6.9c0-3.2,0-5.9,0-8.1c0-2.2,0-4.2,0-6s0-3.1,0-3.7c0-0.7,0-1.1,0-1.2v-0.7
					C543.1,37.3,543.5,35,544.2,32.8z M605.3,59.3c0,2.4-0.4,4.7-1.1,6.9s-1.8,4.3-3.1,6.1c-1.3,1.8-2.9,3.4-4.8,4.7
					c-1.9,1.3-3.9,2.3-6.2,2.9c-1.3,0.4-2.3,0.6-2.9,0.8c-0.6,0.2-1,0.2-1.2,0.2H578c-0.2,0-0.5-0.1-1-0.4c-0.5-0.3-0.8-0.5-0.8-0.7
					V62.2c0-0.2,0.1-0.3,0.2-0.4c0.1,0,0.3-0.1,0.5-0.2c0.2,0,0.4-0.1,0.7-0.3c0.3-0.1,0.6-0.3,0.9-0.6c0.4-0.4,0.8-0.9,1.2-1.5
					c0.4-0.6,0.7-1.1,0.9-1.5c0.3-0.4,0.4-1.9,0.5-4.5c0-0.3,0.1-0.6,0.1-1v-0.9v-3.8v-0.9c0-0.4,0-0.7-0.1-0.9
					c0-1.2-0.1-2.1-0.2-2.8c-0.1-0.7-0.1-1.2-0.2-1.5c-0.1-0.5-0.2-1-0.4-1.7c-0.2-0.7-0.4-1.2-0.6-1.6c-0.1-0.3-0.2-0.4-0.5-0.5
					c-0.3-0.1-0.6-0.2-0.9-0.2c-0.3,0-0.7-0.1-1-0.1c-0.4,0-0.6-0.1-0.8-0.2c-0.2-0.2-0.2-0.3-0.2-0.5V19.2c0-0.2,0.2-0.5,0.5-0.8
					c0.3-0.3,0.7-0.6,1.2-0.9h7.3c1.2,0.3,2,0.4,2.7,0.6c0.6,0.1,1.4,0.4,2.2,0.7c2.2,0.7,4.2,1.7,6,3.1c1.9,1.4,3.5,3,4.8,4.8
					c1.3,1.8,2.4,3.8,3.1,6s1.1,4.5,1.1,6.9V59.3z"/>
				<path class="st4" d="M612.5,32.8c0.7-2.2,1.8-4.2,3.1-6.1c1.3-1.8,2.9-3.4,4.7-4.8c1.8-1.4,3.9-2.4,6.1-3.1
					c0.9-0.4,1.6-0.6,2.2-0.7c0.6-0.1,1.5-0.3,2.7-0.6h7.3c0.5,0.3,0.9,0.5,1.2,0.9c0.3,0.3,0.5,0.6,0.5,0.8v17.5
					c-1.1,0.5-2,0.8-2.8,0.9c-0.3,0.1-0.6,0.4-0.8,0.9c-0.3,0.5-0.5,1-0.6,1.5c-0.1,0.3-0.1,0.5-0.2,0.7c0,0.2-0.1,0.5-0.2,0.7
					c-0.1,0.3-0.1,0.7-0.2,1.4c-0.1,0.7-0.1,1.7-0.2,2.9c-0.1,0.2-0.1,0.5-0.1,0.9v0.9v3.8v0.9c0,0.4,0,0.7,0.1,1
					c0.2,2.6,0.4,4.1,0.6,4.5c0.1,0.2,0.2,0.4,0.4,0.6c0.2,0.2,0.3,0.5,0.5,0.9c0.4,0.6,0.8,1.1,1.2,1.4c0.4,0.4,0.8,0.6,1.1,0.8
					c0.3,0.2,0.6,0.3,0.8,0.4c0.2,0.1,0.3,0.2,0.3,0.3v17.6c0,0.1-0.1,0.2-0.3,0.3c-0.2,0.1-0.4,0.3-0.6,0.4
					c-0.2,0.1-0.5,0.3-0.9,0.4h-8.1c-0.3,0-1.6-0.3-4-1c-2.3-0.6-4.3-1.6-6.2-2.9c-1.9-1.3-3.5-2.9-4.8-4.7
					c-1.3-1.8-2.3-3.9-3.1-6.1c-0.7-2.2-1.1-4.5-1.1-6.9c0-3.2,0-5.9,0-8.1c0-2.2,0-4.2,0-6s0-3.1,0-3.7c0-0.7,0-1.1,0-1.2v-0.7
					C611.4,37.3,611.8,35,612.5,32.8z M673.6,59.3c0,2.4-0.4,4.7-1.1,6.9s-1.8,4.3-3.1,6.1c-1.3,1.8-2.9,3.4-4.8,4.7
					c-1.9,1.3-3.9,2.3-6.2,2.9c-1.3,0.4-2.3,0.6-2.9,0.8c-0.6,0.2-1,0.2-1.2,0.2h-8.1c-0.2,0-0.5-0.1-1-0.4
					c-0.5-0.3-0.8-0.5-0.8-0.7V62.2c0-0.2,0.1-0.3,0.2-0.4c0.1,0,0.3-0.1,0.5-0.2c0.2,0,0.4-0.1,0.7-0.3c0.3-0.1,0.6-0.3,0.9-0.6
					c0.4-0.4,0.8-0.9,1.2-1.5c0.4-0.6,0.7-1.1,0.9-1.5c0.3-0.4,0.4-1.9,0.5-4.5c0-0.3,0.1-0.6,0.1-1v-0.9v-3.8v-0.9
					c0-0.4,0-0.7-0.1-0.9c0-1.2-0.1-2.1-0.2-2.8c-0.1-0.7-0.1-1.2-0.2-1.5c-0.1-0.5-0.2-1-0.4-1.7c-0.2-0.7-0.4-1.2-0.6-1.6
					c-0.1-0.3-0.2-0.4-0.5-0.5c-0.3-0.1-0.6-0.2-0.9-0.2c-0.3,0-0.7-0.1-1-0.1c-0.4,0-0.6-0.1-0.8-0.2c-0.2-0.2-0.2-0.3-0.2-0.5
					V19.2c0-0.2,0.2-0.5,0.5-0.8c0.3-0.3,0.7-0.6,1.2-0.9h7.3c1.2,0.3,2,0.4,2.7,0.6c0.6,0.1,1.4,0.4,2.2,0.7c2.2,0.7,4.2,1.7,6,3.1
					c1.9,1.4,3.5,3,4.8,4.8c1.3,1.8,2.4,3.8,3.1,6s1.1,4.5,1.1,6.9V59.3z"/>
				<path class="st4" d="M680.8,18.9c0.4-0.5,0.8-1,1.4-1.4h9.6h7.5c0.5,0.3,1.1,0.7,1.7,1.2c0.7,0.6,1.1,1.1,1.4,1.6v59.8
					c0,0.2-0.2,0.3-0.6,0.5c-0.4,0.2-0.7,0.2-0.7,0.2h-19.6c-0.4,0-0.8-0.2-1.2-0.6c-0.4-0.4-0.6-0.8-0.6-1.2V21.2
					C680,20.2,680.4,19.4,680.8,18.9z M706.9,80.2c-0.4-0.2-0.6-0.4-0.6-0.6V61.3c0-0.3,0.1-0.5,0.4-0.6c0.3-0.2,0.6-0.3,1-0.4
					c0.4-0.1,0.7-0.2,1.1-0.2c0.4,0,0.6-0.1,0.7-0.1h13.8c1,0,1.7,0.2,2.3,0.6c0.6,0.4,0.9,1,0.9,1.9v17.2c0,0.3-0.1,0.5-0.3,0.6
					c-0.2,0.2-0.5,0.3-0.8,0.4c-0.3,0.1-0.6,0.2-0.9,0.2c-0.3,0.1-0.6,0.1-0.8,0.1h-14.8c0,0-0.2,0-0.4-0.1
					c-0.2-0.1-0.4-0.1-0.5-0.1C707.7,80.6,707.4,80.4,706.9,80.2z"/>
				<path class="st4" d="M767.3,54.1l-0.8-0.8h-21.4c-0.9-0.6-1.9-1.2-2.9-1.8s-2-1.2-2.9-1.8c-0.9-0.6-1.7-1.4-2.5-2.4
					c-0.8-1-1.5-2.1-2.1-3.4s-1.1-2.4-1.5-3.6s-0.6-2.3-0.6-3.3c0.2-3.5,1.2-6.6,3.1-9.3s4.4-4.9,7.5-6.6c1-0.5,2.1-0.9,3.5-1.4
					c0.7-0.3,1.3-0.5,1.9-0.7c0.6-0.2,1.3-0.4,2-0.5c0.7-0.2,1.5-0.3,2.4-0.4c0.9-0.1,2-0.3,3.2-0.4h5.5v27.1h18
					c1.4,0.2,3,0.7,4.7,1.6c1.8,0.9,3.4,2.1,4.9,3.4c1.5,1.4,2.8,2.8,3.8,4.4c1,1.6,1.5,3,1.5,4.4V65c-0.1,0.4-0.2,0.8-0.3,1.1
					c-0.1,0.4-0.1,0.7-0.2,1.1c-0.1,0.4-0.2,1.1-0.5,2.2c-0.3,1.1-0.7,2.1-1.3,2.9c-1.3,2-3,3.5-5.2,4.5c-2.2,1-4.5,1.8-7.2,2.6
					c-1.5,0.4-2.9,0.8-4.4,1.1c-1.5,0.3-3,0.5-4.5,0.5h-0.5h-0.8c-0.1,0-0.3,0-0.5,0c-0.2,0-0.4-0.1-0.7-0.1c-0.6-0.2-1-0.4-1.2-0.6
					c-0.2-0.2-0.3-0.4-0.3-0.6V54.1z M732.6,59.4c0-0.2,0-0.4,0.1-0.6c0-0.3,0.1-0.5,0.2-0.8c0.1-0.3,0.2-0.5,0.3-0.7
					c0.2-0.2,0.3-0.3,0.5-0.3h21.9c0.6,0,0.9,0.1,1.1,0.4c0.2,0.3,0.4,0.6,0.7,1.1c0.6,1,1.2,1.8,2,2.4c0.4,0.3,0.8,0.4,1.4,0.6
					c0.6,0.1,1.1,0.2,1.6,0.3c0.5,0.1,0.9,0.2,1.2,0.2c0.3,0.1,0.4,0.2,0.3,0.3v17.5c0,0.1-0.1,0.2-0.3,0.3
					c-0.2,0.1-0.4,0.3-0.6,0.4c-0.2,0.1-0.4,0.2-0.6,0.3c-0.2,0.1-0.3,0.1-0.3,0.1h-8.8c-0.1,0-0.5,0-1.2-0.1
					c-0.7-0.1-1.7-0.3-3.1-0.7c-2.4-0.6-4.6-1.6-6.6-2.9c-2-1.4-3.7-3-5.2-4.8c-1.4-1.9-2.5-3.9-3.4-6.1
					C733,64,732.6,61.7,732.6,59.4z M764.9,17.5h8c1,0.2,2.4,0.6,4.3,1.4c1.9,0.8,3.3,1.4,4.3,2s1.8,1.2,2.6,1.9
					c1.3,1,2.4,2,3.5,3.2c1.1,1.2,1.9,2.3,2.5,3.5c0.5,0.7,0.8,1.2,1,1.5c0.2,0.4,0.3,0.8,0.5,1.3v7.8h-18.8c-0.7-1.6-1.4-2.6-2-3.2
					c-0.6-0.6-1.3-1-2-1.4c-0.3-0.2-0.7-0.3-1.1-0.4s-0.8-0.2-1.2-0.2c-0.4-0.1-0.8-0.2-1.1-0.3c-0.3-0.2-0.5-0.4-0.5-0.8V17.5z"/>
			</g>
			<path class="st5" d="M1,53.4l4.1,2.9c4-1.8,5.7-6.5,4-10.4c0,0,0,0,0,0c-1.2-2.6-3.7-4.4-6.5-4.6c1.3-7.2,8.1-19.7,8.1-19.7
				l1.7-3.4l0.6,4.5c4.1,1.6,8.6-0.5,10.2-4.5c1-2.6,0.6-5.6-1.2-7.8c5.5-3.9,19-8.1,19-8.1L44.5,1l-2.4,3.5
				c1.1,3.1,4.1,5.2,7.4,5.2c4.1,0,7.6-3.2,7.9-7.3c7.2,1.2,20.5,8.4,20.5,8.4l3.4,1.6l-5.6,1c-1.2,4.2,1.3,8.6,5.5,9.7
				c2.5,0.7,5.1,0.1,7.1-1.5c4.2,5.8,8.5,20.1,8.5,20.1l1,3.6l-4-3.3c-3.9,1.9-5.6,6.6-3.6,10.6c1.2,2.5,3.7,4.2,6.5,4.4
				c-1.2,7.3-8,20.2-8,20.2l-1.9,3.3l-0.4-4.8c-4-1.7-8.7,0.1-10.4,4.1c-1.2,2.9-0.7,6.2,1.4,8.5c-5.5,4-19.1,8.4-19.1,8.4l-3.6,1.1
				l2.4-3c-1.3-4.1-5.8-6.4-9.9-5.1c-3.1,1-5.2,3.7-5.5,6.9c-7.4-1.2-20.7-8.6-20.7-8.6L17.6,86l5.5-0.5c1.4-4.1-0.8-8.6-4.9-10.1
				c-2.7-0.9-5.7-0.3-7.8,1.6c-4.1-5.9-8.2-20-8.2-20L1,53.4z"/>
			<g class="st2">
				<path class="st1" d="M16.2,41.1v-9.5c0-0.1,0.3-0.3,0.8-0.7h8.9l7.7,11.6H34l7.7-11.6h8.8c0.6,0.4,0.8,0.6,0.8,0.7v17.9
					c-0.1,0.5-0.1,0.8-0.2,1.1c-0.1,0.2-0.2,0.4-0.4,0.5c-0.2,0.1-0.3,0.2-0.5,0.3c-0.2,0.1-0.4,0.1-0.6,0.2h-8.3l-7.5,11l-7.6-11
					h-8.3c-0.2-0.1-0.4-0.2-0.6-0.2s-0.3-0.1-0.5-0.3c-0.2-0.1-0.3-0.3-0.4-0.6c-0.1-0.3-0.2-0.6-0.2-1V41.1z M26.5,65.9
					c-0.1,0-0.2,0.1-0.4,0.3h-8.6c-0.2,0-0.5-0.1-0.8-0.3c-0.3-0.2-0.5-0.5-0.5-0.7V55c0-0.1,0-0.1,0.1-0.3c0.1-0.1,0.1-0.3,0.2-0.4
					c0.1-0.1,0.2-0.3,0.3-0.4c0.1-0.1,0.2-0.1,0.4-0.1h8.6c0,0,0.1,0,0.2,0.1c0.1,0,0.2,0.1,0.2,0.1c0.1,0.1,0.3,0.3,0.5,0.5
					c0.2,0.2,0.3,0.3,0.3,0.3v10.5c0,0.1-0.1,0.2-0.3,0.4C26.6,65.7,26.5,65.8,26.5,65.9z M41,65.9c0-0.1-0.1-0.2-0.3-0.3
					c-0.2-0.1-0.3-0.3-0.3-0.4V54.7c0,0,0.1-0.1,0.3-0.3c0.2-0.2,0.4-0.3,0.5-0.5c0,0,0.1,0,0.2-0.1c0.1,0,0.2-0.1,0.2-0.1h8.6
					c0.1,0,0.2,0,0.3,0.1c0.1,0.1,0.2,0.2,0.3,0.4c0.1,0.1,0.2,0.3,0.3,0.4c0.1,0.1,0.1,0.2,0.1,0.3v10.1c0,0.3-0.2,0.5-0.5,0.7
					c-0.3,0.2-0.6,0.3-0.8,0.3h-8.6C41.2,66,41,65.9,41,65.9z"/>
				<path class="st1" d="M54.1,41.1v-8.7c0-0.2,0.1-0.4,0.2-0.7c0.1-0.2,0.3-0.5,0.5-0.8h20.9c0.3,0.4,0.5,0.7,0.6,0.8
					c0.1,0.1,0.2,0.2,0.2,0.3v33.1c0,0.3-0.2,0.6-0.6,0.8c-0.4,0.2-0.7,0.3-0.9,0.3H63.6c-0.3,0-0.5-0.1-0.8-0.4
					c-0.2-0.3-0.3-0.5-0.3-0.8V43.2c0-0.1,0-0.2-0.1-0.4c-0.1-0.2-0.3-0.4-0.6-0.6h-7.2c-0.1,0-0.3-0.1-0.4-0.3
					C54.2,41.6,54.1,41.4,54.1,41.1z M78.6,42.1c-0.3,0-0.4-0.2-0.4-0.4v-9.9c0-0.1,0.3-0.4,0.9-0.9l6.1,0c0.2,0,0.5,0.1,0.7,0.4
					c0.3,0.2,0.4,0.5,0.4,0.8v9.2c-0.1,0.4-0.4,0.7-0.7,0.8c-0.3,0.1-0.6,0.2-0.8,0.2H79C78.7,42.2,78.6,42.1,78.6,42.1z"/>
			</g>
			<g class="st2">
				<path class="st6" d="M16.2,41.1v-9.5c0-0.1,0.3-0.3,0.8-0.7h8.9l7.7,11.6H34l7.7-11.6h8.8c0.6,0.4,0.8,0.6,0.8,0.7v17.9
					c-0.1,0.5-0.1,0.8-0.2,1.1c-0.1,0.2-0.2,0.4-0.4,0.5c-0.2,0.1-0.3,0.2-0.5,0.3c-0.2,0.1-0.4,0.1-0.6,0.2h-8.3l-7.5,11l-7.6-11
					h-8.3c-0.2-0.1-0.4-0.2-0.6-0.2s-0.3-0.1-0.5-0.3c-0.2-0.1-0.3-0.3-0.4-0.6c-0.1-0.3-0.2-0.6-0.2-1V41.1z M26.5,65.9
					c-0.1,0-0.2,0.1-0.4,0.3h-8.6c-0.2,0-0.5-0.1-0.8-0.3c-0.3-0.2-0.5-0.5-0.5-0.7V55c0-0.1,0-0.1,0.1-0.3c0.1-0.1,0.1-0.3,0.2-0.4
					c0.1-0.1,0.2-0.3,0.3-0.4c0.1-0.1,0.2-0.1,0.4-0.1h8.6c0,0,0.1,0,0.2,0.1c0.1,0,0.2,0.1,0.2,0.1c0.1,0.1,0.3,0.3,0.5,0.5
					c0.2,0.2,0.3,0.3,0.3,0.3v10.5c0,0.1-0.1,0.2-0.3,0.4C26.6,65.7,26.5,65.8,26.5,65.9z M41,65.9c0-0.1-0.1-0.2-0.3-0.3
					c-0.2-0.1-0.3-0.3-0.3-0.4V54.7c0,0,0.1-0.1,0.3-0.3c0.2-0.2,0.4-0.3,0.5-0.5c0,0,0.1,0,0.2-0.1c0.1,0,0.2-0.1,0.2-0.1h8.6
					c0.1,0,0.2,0,0.3,0.1c0.1,0.1,0.2,0.2,0.3,0.4c0.1,0.1,0.2,0.3,0.3,0.4c0.1,0.1,0.1,0.2,0.1,0.3v10.1c0,0.3-0.2,0.5-0.5,0.7
					c-0.3,0.2-0.6,0.3-0.8,0.3h-8.6C41.2,66,41,65.9,41,65.9z"/>
				<path class="st6" d="M54.1,41.1v-8.7c0-0.2,0.1-0.4,0.2-0.7c0.1-0.2,0.3-0.5,0.5-0.8h20.9c0.3,0.4,0.5,0.7,0.6,0.8
					c0.1,0.1,0.2,0.2,0.2,0.3v33.1c0,0.3-0.2,0.6-0.6,0.8c-0.4,0.2-0.7,0.3-0.9,0.3H63.6c-0.3,0-0.5-0.1-0.8-0.4
					c-0.2-0.3-0.3-0.5-0.3-0.8V43.2c0-0.1,0-0.2-0.1-0.4c-0.1-0.2-0.3-0.4-0.6-0.6h-7.2c-0.1,0-0.3-0.1-0.4-0.3
					C54.2,41.6,54.1,41.4,54.1,41.1z M78.6,42.1c-0.3,0-0.4-0.2-0.4-0.4v-9.9c0-0.1,0.3-0.4,0.9-0.9l6.1,0c0.2,0,0.5,0.1,0.7,0.4
					c0.3,0.2,0.4,0.5,0.4,0.8v9.2c-0.1,0.4-0.4,0.7-0.7,0.8c-0.3,0.1-0.6,0.2-0.8,0.2H79C78.7,42.2,78.6,42.1,78.6,42.1z"/>
			</g>
		</g>
	</g>
</g>
</svg>
